<svg xmlns:dc="http://purl.org/dc/elements/1.1/" xmlns:cc="http://creativecommons.org/ns#" xmlns:rdf="http://www.w3.org/1999/02/22-rdf-syntax-ns#" xmlns:svg="http://www.w3.org/2000/svg" xmlns="http://www.w3.org/2000/svg" viewBox="0 0 180 180"><metadata><rdf:RDF><cc:Work><dc:format>image/svg+xml</dc:format><dc:type rdf:resource="http://purl.org/dc/dcmitype/StillImage"/><dc:title>Bottts</dc:title><dc:creator><cc:Agent><dc:title>Pablo Stanley</dc:title></cc:Agent></dc:creator><dc:source>https://bottts.com/</dc:source><cc:license rdf:resource="https://bottts.com/"/><dc:contributor><cc:Agent><dc:title>Florian Körner</dc:title></cc:Agent></dc:contributor></cc:Work></rdf:RDF></metadata><mask id="avatarsRadiusMask"><rect width="180" height="180" rx="0" ry="0" x="0" y="0" fill="#fff"/></mask><g mask="url(#avatarsRadiusMask)"><g transform="translate(0, 66)"><path fill-rule="evenodd" clip-rule="evenodd" d="M12 39C12 50.9264 17.9543 61 28 61C38.0457 61 48 50.9264 48 39C48 26.0736 38.0457 16 28 16C17.9543 16 12 26.0736 12 39ZM168 39C168 50.9264 162.046 61 152 61C141.954 61 132 50.9264 132 39C132 26.0736 141.954 16 152 16C162.046 16 168 26.0736 168 39Z" fill="#E1E6E8"/><mask id="sidesRoundMask0" mask-type="alpha" maskUnits="userSpaceOnUse" x="12" y="16" width="156" height="45"><path fill-rule="evenodd" clip-rule="evenodd" d="M12 39C12 50.9264 17.9543 61 28 61C38.0457 61 48 50.9264 48 39C48 26.0736 38.0457 16 28 16C17.9543 16 12 26.0736 12 39ZM168 39C168 50.9264 162.046 61 152 61C141.954 61 132 50.9264 132 39C132 26.0736 141.954 16 152 16C162.046 16 168 26.0736 168 39Z" fill="white"/></mask><g mask="url(#sidesRoundMask0)"><rect width="180" height="76" fill="#26C6DA"/><rect x="20" width="140" height="76" fill="black" fill-opacity="0.2"/></g></g><g transform="translate(41, 0)"><path fill-rule="evenodd" clip-rule="evenodd" d="M71.2104 40C78.8499 33.2931 84.6313 20.6882 84 14C83.8635 12.5535 85.9998 12.2993 87 14C91.418 21.5124 89.7172 36.0672 89.1535 40H92V52H66V40H71.2104ZM16.521 13.7408C16.521 21.2733 21.4918 33.445 29.2618 40H34V52H8V40H11.2251C10.6299 36.4414 8.52929 21.6012 13.4337 14.1009C14.3353 12.7219 16.521 12.6807 16.521 13.7408Z" fill="#E1E6E8"/><mask id="topHornsMask0" mask-type="alpha" maskUnits="userSpaceOnUse" x="8" y="12" width="84" height="40"><path fill-rule="evenodd" clip-rule="evenodd" d="M71.2104 40C78.8499 33.2931 84.6313 20.6882 84 14C83.8635 12.5535 85.9998 12.2993 87 14C91.418 21.5124 89.7172 36.0672 89.1535 40H92V52H66V40H71.2104ZM16.521 13.7408C16.521 21.2733 21.4918 33.445 29.2618 40H34V52H8V40H11.2251C10.6299 36.4414 8.52929 21.6012 13.4337 14.1009C14.3353 12.7219 16.521 12.6807 16.521 13.7408Z" fill="white"/></mask><g mask="url(#topHornsMask0)"><rect width="100" height="52" fill="#26C6DA"/><rect y="40" width="100" height="12" fill="black" fill-opacity="0.4"/><path fill-rule="evenodd" clip-rule="evenodd" d="M15.4558 13H31.5689V40H20.8201C13.3712 32.1499 15.4558 13 15.4558 13Z" fill="white" fill-opacity="0.4"/><path fill-rule="evenodd" clip-rule="evenodd" d="M84.8203 13H92.5691V40H81.8203C87.5713 32.1946 84.8203 13 84.8203 13Z" fill="white" fill-opacity="0.4"/></g></g><g transform="translate(25, 44)"><path fill-rule="evenodd" clip-rule="evenodd" d="M66 0C124.352 0 130.001 40.6854 130 78C129.999 111.315 104.534 120 66 120C28.5387 120 0 111.315 0 78C0 40.6854 7.64843 0 66 0Z" fill="black" fill-opacity="0.8"/><mask id="faceRound01Mask0" mask-type="alpha" maskUnits="userSpaceOnUse" x="0" y="0" width="130" height="120"><path fill-rule="evenodd" clip-rule="evenodd" d="M66 0C124.352 0 130.001 40.6854 130 78C129.999 111.315 104.534 120 66 120C28.5387 120 0 111.315 0 78C0 40.6854 7.64843 0 66 0Z" fill="white"/></mask><g mask="url(#faceRound01Mask0)"><rect x="-4" y="-2" width="138" height="124" fill="#00ACC1"/> undefined </g></g><g transform="translate(52, 124)"><rect x="4" y="5" width="68" height="22" rx="5" fill="black" fill-opacity="0.2"/><rect x="8" y="9" width="60" height="14" rx="2" fill="white"/><rect x="18" y="9" width="4" height="14" fill="black" fill-opacity="0.1"/><rect x="42" y="9" width="4" height="14" fill="black" fill-opacity="0.1"/><rect x="30" y="9" width="4" height="14" fill="black" fill-opacity="0.1"/><rect x="54" y="9" width="4" height="14" fill="black" fill-opacity="0.1"/></g><g transform="translate(38, 76)"><path d="M18 19L30 17" stroke="black" stroke-width="4" stroke-linecap="round" stroke-linejoin="round"/><path d="M20 31C20 27.686 22.9098 25 27 25C30.0902 25 33 27.686 33 31" stroke="black" stroke-width="4" stroke-linecap="round" stroke-linejoin="round"/><path d="M86 20L74 17" stroke="black" stroke-width="4" stroke-linecap="round" stroke-linejoin="round"/><path d="M84 31C84 27.686 81.0902 25 78 25C73.9098 25 71 27.686 71 31" stroke="black" stroke-width="4" stroke-linecap="round" stroke-linejoin="round"/></g></g></svg>