<svg xmlns:dc="http://purl.org/dc/elements/1.1/" xmlns:cc="http://creativecommons.org/ns#" xmlns:rdf="http://www.w3.org/1999/02/22-rdf-syntax-ns#" xmlns:svg="http://www.w3.org/2000/svg" xmlns="http://www.w3.org/2000/svg" viewBox="0 0 180 180"><metadata><rdf:RDF><cc:Work><dc:format>image/svg+xml</dc:format><dc:type rdf:resource="http://purl.org/dc/dcmitype/StillImage"/><dc:title>Bottts</dc:title><dc:creator><cc:Agent><dc:title>Pablo Stanley</dc:title></cc:Agent></dc:creator><dc:source>https://bottts.com/</dc:source><cc:license rdf:resource="https://bottts.com/"/><dc:contributor><cc:Agent><dc:title>Florian Körner</dc:title></cc:Agent></dc:contributor></cc:Work></rdf:RDF></metadata><mask id="avatarsRadiusMask"><rect width="180" height="180" rx="0" ry="0" x="0" y="0" fill="#fff"/></mask><g mask="url(#avatarsRadiusMask)"><g transform="translate(0, 66)"><path fill-rule="evenodd" clip-rule="evenodd" d="M134.436 10.184C134 11.0397 134 12.1598 134 14.4V61.6C134 63.8402 134 64.9603 134.436 65.816C134.819 66.5686 135.431 67.1805 136.184 67.564C137.04 68 138.16 68 140.4 68H163.6C165.84 68 166.96 68 167.816 67.564C168.569 67.1805 169.181 66.5686 169.564 65.816C170 64.9603 170 63.8402 170 61.6V52.9944C171.35 52.9761 172.161 52.8979 172.816 52.564C173.569 52.1805 174.181 51.5686 174.564 50.816C175 49.9603 175 48.8402 175 46.6V29.4C175 27.1598 175 26.0397 174.564 25.184C174.181 24.4314 173.569 23.8195 172.816 23.436C172.161 23.1021 171.35 23.0239 170 23.0056V14.4C170 12.1598 170 11.0397 169.564 10.184C169.181 9.43139 168.569 8.81947 167.816 8.43597C166.96 8 165.84 8 163.6 8H140.4C138.16 8 137.04 8 136.184 8.43597C135.431 8.81947 134.819 9.43139 134.436 10.184ZM20.436 17.184C20 18.0397 20 19.1598 20 21.4V31H16.4C14.1598 31 13.0397 31 12.184 31.436C11.4314 31.8195 10.8195 32.4314 10.436 33.184C10 34.0397 10 35.1598 10 37.4V54.6C10 56.8402 10 57.9603 10.436 58.816C10.8195 59.5686 11.4314 60.1805 12.184 60.564C13.0397 61 14.1598 61 16.4 61H39.6C41.8402 61 42.9603 61 43.816 60.564C44.5686 60.1805 45.1805 59.5686 45.564 58.816C46 57.9603 46 56.8402 46 54.6V38.6V37.4V21.4C46 19.1598 46 18.0397 45.564 17.184C45.1805 16.4314 44.5686 15.8195 43.816 15.436C42.9603 15 41.8402 15 39.6 15H26.4C24.1598 15 23.0397 15 22.184 15.436C21.4314 15.8195 20.8195 16.4314 20.436 17.184Z" fill="#0076DE"/><mask id="sidesSquareAssymetricMask0" mask-type="alpha" maskUnits="userSpaceOnUse" x="10" y="8" width="165" height="60"><path fill-rule="evenodd" clip-rule="evenodd" d="M134.436 10.184C134 11.0397 134 12.1598 134 14.4V61.6C134 63.8402 134 64.9603 134.436 65.816C134.819 66.5686 135.431 67.1805 136.184 67.564C137.04 68 138.16 68 140.4 68H163.6C165.84 68 166.96 68 167.816 67.564C168.569 67.1805 169.181 66.5686 169.564 65.816C170 64.9603 170 63.8402 170 61.6V52.9944C171.35 52.9761 172.161 52.8979 172.816 52.564C173.569 52.1805 174.181 51.5686 174.564 50.816C175 49.9603 175 48.8402 175 46.6V29.4C175 27.1598 175 26.0397 174.564 25.184C174.181 24.4314 173.569 23.8195 172.816 23.436C172.161 23.1021 171.35 23.0239 170 23.0056V14.4C170 12.1598 170 11.0397 169.564 10.184C169.181 9.43139 168.569 8.81947 167.816 8.43597C166.96 8 165.84 8 163.6 8H140.4C138.16 8 137.04 8 136.184 8.43597C135.431 8.81947 134.819 9.43139 134.436 10.184ZM20.436 17.184C20 18.0397 20 19.1598 20 21.4V31H16.4C14.1598 31 13.0397 31 12.184 31.436C11.4314 31.8195 10.8195 32.4314 10.436 33.184C10 34.0397 10 35.1598 10 37.4V54.6C10 56.8402 10 57.9603 10.436 58.816C10.8195 59.5686 11.4314 60.1805 12.184 60.564C13.0397 61 14.1598 61 16.4 61H39.6C41.8402 61 42.9603 61 43.816 60.564C44.5686 60.1805 45.1805 59.5686 45.564 58.816C46 57.9603 46 56.8402 46 54.6V38.6V37.4V21.4C46 19.1598 46 18.0397 45.564 17.184C45.1805 16.4314 44.5686 15.8195 43.816 15.436C42.9603 15 41.8402 15 39.6 15H26.4C24.1598 15 23.0397 15 22.184 15.436C21.4314 15.8195 20.8195 16.4314 20.436 17.184Z" fill="white"/></mask><g mask="url(#sidesSquareAssymetricMask0)"><rect width="180" height="76" fill="#FFCA28"/><rect y="47" width="180" height="29" fill="black" fill-opacity="0.1"/><path fill-rule="evenodd" clip-rule="evenodd" d="M161 25C163.761 25 166 22.7614 166 20C166 17.2386 163.761 15 161 15C158.239 15 156 17.2386 156 20C156 22.7614 158.239 25 161 25Z" fill="white" fill-opacity="0.6"/><path fill-rule="evenodd" clip-rule="evenodd" d="M161 41C163.761 41 166 38.7614 166 36C166 33.2386 163.761 31 161 31C158.239 31 156 33.2386 156 36C156 38.7614 158.239 41 161 41Z" fill="white" fill-opacity="0.6"/></g></g><g transform="translate(41, 0)"><g filter="url(#topGlowingBulb01Filter0)"><path fill-rule="evenodd" clip-rule="evenodd" d="M32 24C32 15.1634 39.1634 8 48 8H52C60.8366 8 68 15.1634 68 24V32C68 36.4183 64.4183 40 60 40H40C35.5817 40 32 36.4183 32 32V24Z" fill="white" fill-opacity="0.3"/></g><path d="M49 11.5C53.9315 11.5 58.366 13.6281 61.4352 17.0162" stroke="white" stroke-width="2" stroke-linecap="round"/><path fill-rule="evenodd" clip-rule="evenodd" d="M49.8284 29L40.8284 20L38 22.8284L48 32.8284V40H52V32.9706L62.1421 22.8284L59.3137 20L50.3137 29H49.8284Z" fill="white" fill-opacity="0.8"/><rect x="22" y="40" width="56" height="12" rx="1" fill="#FFCA28"/><defs><filter id="topGlowingBulb01Filter0" x="24" y="0" width="52" height="48" filterUnits="userSpaceOnUse" color-interpolation-filters="sRGB"><feFlood flood-opacity="0" result="BackgroundImageFix"/><feColorMatrix in="SourceAlpha" type="matrix" values="0 0 0 0 0 0 0 0 0 0 0 0 0 0 0 0 0 0 127 0"/><feOffset/><feGaussianBlur stdDeviation="4"/><feColorMatrix type="matrix" values="0 0 0 0 1 0 0 0 0 1 0 0 0 0 1 0 0 0 0.5 0"/><feBlend mode="normal" in2="BackgroundImageFix" result="effect1_dropShadow"/><feBlend mode="normal" in="SourceGraphic" in2="effect1_dropShadow" result="shape"/><feColorMatrix in="SourceAlpha" type="matrix" values="0 0 0 0 0 0 0 0 0 0 0 0 0 0 0 0 0 0 127 0" result="hardAlpha"/><feOffset/><feGaussianBlur stdDeviation="2"/><feComposite in2="hardAlpha" operator="arithmetic" k2="-1" k3="1"/><feColorMatrix type="matrix" values="0 0 0 0 1 0 0 0 0 1 0 0 0 0 1 0 0 0 0.5 0"/><feBlend mode="normal" in2="shape" result="effect2_innerShadow"/></filter></defs></g><g transform="translate(25, 44)"><rect width="130" height="120" rx="18" fill="#0076DE"/><mask id="faceSquare01Mask0" mask-type="alpha" maskUnits="userSpaceOnUse" x="0" y="0" width="130" height="120"><rect width="130" height="120" rx="18" fill="white"/></mask><g mask="url(#faceSquare01Mask0)"><rect x="-2" y="-2" width="134" height="124" fill="#FFB300"/><path fill-rule="evenodd" clip-rule="evenodd" d="M15 0H11V18H15V0ZM23 0H19V30V34H23H72.416C73.1876 35.7659 74.9497 37 77 37C79.7614 37 82 34.7614 82 32C82 29.2386 79.7614 27 77 27C74.9497 27 73.1876 28.2341 72.416 30H23V0Z" fill="black" fill-opacity="0.1"/><path fill-rule="evenodd" clip-rule="evenodd" d="M122 34.584C123.766 33.8124 125 32.0503 125 30C125 27.2386 122.761 25 120 25C117.239 25 115 27.2386 115 30C115 32.0503 116.234 33.8124 118 34.584V60V64H122H141V60H122V34.584Z" fill="white" fill-opacity="0.2"/><path fill-rule="evenodd" clip-rule="evenodd" d="M114 46H110V68V72H114H141V68H114V46Z" fill="black" fill-opacity="0.2"/><path fill-rule="evenodd" clip-rule="evenodd" d="M27 103.584C25.2341 102.812 24 101.05 24 99C24 96.2386 26.2386 94 29 94C31.7614 94 34 96.2386 34 99C34 101.05 32.7659 102.812 31 103.584V129V133H27H8V129H27V103.584Z" fill="black" fill-opacity="0.2"/></g></g><g transform="translate(52, 124)"><path fill-rule="evenodd" clip-rule="evenodd" d="M18 10.2222C18 21.7845 24.4741 28 38 28C51.5182 28 58 21.6615 58 10.2222C58 9.49622 57.1739 8 55 8C39.2707 8 29.1917 8 21 8C18.949 8 18 9.38479 18 10.2222Z" fill="black" fill-opacity="0.8"/><mask id="mouthSmilie02Mask0" mask-type="alpha" maskUnits="userSpaceOnUse" x="18" y="8" width="40" height="20"><path fill-rule="evenodd" clip-rule="evenodd" d="M18 10.2222C18 21.7845 24.4741 28 38 28C51.5182 28 58 21.6615 58 10.2222C58 9.49622 57.1739 8 55 8C39.2707 8 29.1917 8 21 8C18.949 8 18 9.38479 18 10.2222Z" fill="white"/></mask><g mask="url(#mouthSmilie02Mask0)"><rect x="30" y="2" width="16" height="14" rx="2" fill="white"/></g></g><g transform="translate(38, 76)"><path fill-rule="evenodd" clip-rule="evenodd" d="M21 45C29.2843 45 36 38.2843 36 30C36 21.7157 29.2843 15 21 15C12.7157 15 6 21.7157 6 30C6 38.2843 12.7157 45 21 45Z" fill="white" fill-opacity="0.1"/><path fill-rule="evenodd" clip-rule="evenodd" d="M83 45C91.2843 45 98 38.2843 98 30C98 21.7157 91.2843 15 83 15C74.7157 15 68 21.7157 68 30C68 38.2843 74.7157 45 83 45Z" fill="white" fill-opacity="0.1"/><path fill-rule="evenodd" clip-rule="evenodd" d="M21 42C27.6274 42 33 36.6274 33 30C33 23.3726 27.6274 18 21 18C14.3726 18 9 23.3726 9 30C9 36.6274 14.3726 42 21 42Z" fill="white" fill-opacity="0.1"/><path fill-rule="evenodd" clip-rule="evenodd" d="M83 42C89.6274 42 95 36.6274 95 30C95 23.3726 89.6274 18 83 18C76.3726 18 71 23.3726 71 30C71 36.6274 76.3726 42 83 42Z" fill="white" fill-opacity="0.1"/><path fill-rule="evenodd" clip-rule="evenodd" d="M21 36C24.3137 36 27 33.3137 27 30C27 26.6863 24.3137 24 21 24C17.6863 24 15 26.6863 15 30C15 33.3137 17.6863 36 21 36Z" fill="white" fill-opacity="0.8"/><path fill-rule="evenodd" clip-rule="evenodd" d="M83 36C86.3137 36 89 33.3137 89 30C89 26.6863 86.3137 24 83 24C79.6863 24 77 26.6863 77 30C77 33.3137 79.6863 36 83 36Z" fill="white" fill-opacity="0.8"/><path fill-rule="evenodd" clip-rule="evenodd" d="M21 33C22.6569 33 24 31.6569 24 30C24 28.3431 22.6569 27 21 27C19.3431 27 18 28.3431 18 30C18 31.6569 19.3431 33 21 33Z" fill="white" fill-opacity="0.8"/><path fill-rule="evenodd" clip-rule="evenodd" d="M83 33C84.6569 33 86 31.6569 86 30C86 28.3431 84.6569 27 83 27C81.3431 27 80 28.3431 80 30C80 31.6569 81.3431 33 83 33Z" fill="white" fill-opacity="0.8"/></g></g></svg>