<svg xmlns:dc="http://purl.org/dc/elements/1.1/" xmlns:cc="http://creativecommons.org/ns#" xmlns:rdf="http://www.w3.org/1999/02/22-rdf-syntax-ns#" xmlns:svg="http://www.w3.org/2000/svg" xmlns="http://www.w3.org/2000/svg" viewBox="0 0 180 180"><metadata><rdf:RDF><cc:Work><dc:format>image/svg+xml</dc:format><dc:type rdf:resource="http://purl.org/dc/dcmitype/StillImage"/><dc:title>Bottts</dc:title><dc:creator><cc:Agent><dc:title>Pablo Stanley</dc:title></cc:Agent></dc:creator><dc:source>https://bottts.com/</dc:source><cc:license rdf:resource="https://bottts.com/"/><dc:contributor><cc:Agent><dc:title>Florian Körner</dc:title></cc:Agent></dc:contributor></cc:Work></rdf:RDF></metadata><mask id="avatarsRadiusMask"><rect width="180" height="180" rx="0" ry="0" x="0" y="0" fill="#fff"/></mask><g mask="url(#avatarsRadiusMask)"><g transform="translate(0, 66)"><path fill-rule="evenodd" clip-rule="evenodd" d="M160 9H162V28H163.6C165.84 28 166.96 28 167.816 28.436C168.569 28.8195 169.181 29.4314 169.564 30.184C170 31.0397 170 32.1598 170 34.4V53.6C170 55.8402 170 56.9603 169.564 57.816C169.181 58.5686 168.569 59.1805 167.816 59.564C166.96 60 165.84 60 163.6 60H140.4C138.16 60 137.04 60 136.184 59.564C135.431 59.1805 134.819 58.5686 134.436 57.816C134 56.9603 134 55.8402 134 53.6V34.4C134 32.1598 134 31.0397 134.436 30.184C134.819 29.4314 135.431 28.8195 136.184 28.436C137.04 28 138.16 28 140.4 28H160V9ZM10 34.4C10 32.1598 10 31.0397 10.436 30.184C10.8195 29.4314 11.4314 28.8195 12.184 28.436C13.0397 28 14.1598 28 16.4 28H39.6C41.8402 28 42.9603 28 43.816 28.436C44.5686 28.8195 45.1805 29.4314 45.564 30.184C46 31.0397 46 32.1598 46 34.4V53.6C46 55.8402 46 56.9603 45.564 57.816C45.1805 58.5686 44.5686 59.1805 43.816 59.564C42.9603 60 41.8402 60 39.6 60H16.4C14.1598 60 13.0397 60 12.184 59.564C11.4314 59.1805 10.8195 58.5686 10.436 57.816C10 56.9603 10 55.8402 10 53.6V34.4Z" fill="#0076DE"/><mask id="sidesAntenna02Mask0" mask-type="alpha" maskUnits="userSpaceOnUse" x="10" y="9" width="160" height="51"><path fill-rule="evenodd" clip-rule="evenodd" d="M160 9H162V28H163.6C165.84 28 166.96 28 167.816 28.436C168.569 28.8195 169.181 29.4314 169.564 30.184C170 31.0397 170 32.1598 170 34.4V53.6C170 55.8402 170 56.9603 169.564 57.816C169.181 58.5686 168.569 59.1805 167.816 59.564C166.96 60 165.84 60 163.6 60H140.4C138.16 60 137.04 60 136.184 59.564C135.431 59.1805 134.819 58.5686 134.436 57.816C134 56.9603 134 55.8402 134 53.6V34.4C134 32.1598 134 31.0397 134.436 30.184C134.819 29.4314 135.431 28.8195 136.184 28.436C137.04 28 138.16 28 140.4 28H160V9ZM10 34.4C10 32.1598 10 31.0397 10.436 30.184C10.8195 29.4314 11.4314 28.8195 12.184 28.436C13.0397 28 14.1598 28 16.4 28H39.6C41.8402 28 42.9603 28 43.816 28.436C44.5686 28.8195 45.1805 29.4314 45.564 30.184C46 31.0397 46 32.1598 46 34.4V53.6C46 55.8402 46 56.9603 45.564 57.816C45.1805 58.5686 44.5686 59.1805 43.816 59.564C42.9603 60 41.8402 60 39.6 60H16.4C14.1598 60 13.0397 60 12.184 59.564C11.4314 59.1805 10.8195 58.5686 10.436 57.816C10 56.9603 10 55.8402 10 53.6V34.4Z" fill="white"/></mask><g mask="url(#sidesAntenna02Mask0)"><rect width="180" height="76" fill="#42A5F5"/><rect y="38" width="180" height="38" fill="black" fill-opacity="0.1"/></g><rect x="160" y="8" width="2" height="20" fill="white" fill-opacity="0.4"/><path fill-rule="evenodd" clip-rule="evenodd" d="M161 9C163.209 9 165 7.20914 165 5C165 2.79086 163.209 1 161 1C158.791 1 157 2.79086 157 5C157 7.20914 158.791 9 161 9Z" fill="#E1E6E8"/><path fill-rule="evenodd" clip-rule="evenodd" d="M162 6C163.105 6 164 5.10457 164 4C164 2.89543 163.105 2 162 2C160.895 2 160 2.89543 160 4C160 5.10457 160.895 6 162 6Z" fill="white"/></g><g transform="translate(41, 0)"><path fill-rule="evenodd" clip-rule="evenodd" d="M23 22C20.2386 22 18 24.2386 18 27V40H12C10.8954 40 10 40.8954 10 42V52H18H34H42H58H66H82H90V42C90 40.8954 89.1046 40 88 40H82V27C82 24.2386 79.7614 22 77 22H71C68.2386 22 66 24.2386 66 27V40H58V27C58 24.2386 55.7614 22 53 22H47C44.2386 22 42 24.2386 42 27V40H34V27C34 24.2386 31.7614 22 29 22H23Z" fill="#E1E6E8"/><mask id="topLightsMask0" mask-type="alpha" maskUnits="userSpaceOnUse" x="10" y="22" width="80" height="30"><path fill-rule="evenodd" clip-rule="evenodd" d="M23 22C20.2386 22 18 24.2386 18 27V40H12C10.8954 40 10 40.8954 10 42V52H18H34H42H58H66H82H90V42C90 40.8954 89.1046 40 88 40H82V27C82 24.2386 79.7614 22 77 22H71C68.2386 22 66 24.2386 66 27V40H58V27C58 24.2386 55.7614 22 53 22H47C44.2386 22 42 24.2386 42 27V40H34V27C34 24.2386 31.7614 22 29 22H23Z" fill="white"/></mask><g mask="url(#topLightsMask0)"><rect width="100" height="52" fill="#42A5F5"/><rect width="100" height="40" fill="white" fill-opacity="0.6"/><rect x="24" y="28" width="4" height="8" rx="2" fill="white" fill-opacity="0.6"/><rect x="48" y="28" width="4" height="8" rx="2" fill="white" fill-opacity="0.6"/><rect x="72" y="28" width="4" height="8" rx="2" fill="white" fill-opacity="0.6"/></g></g><g transform="translate(25, 44)"><path fill-rule="evenodd" clip-rule="evenodd" d="M0 18C0 8.05888 8.05888 0 18 0H112C121.941 0 130 8.05888 130 18V45.1483C130 49.6831 129.229 54.1848 127.72 58.4611L110.239 107.991C107.699 115.187 100.896 120 93.2647 120H36.7353C29.1036 120 22.3014 115.187 19.7614 107.991L2.28038 58.4611C0.771117 54.1848 0 49.6831 0 45.1483L0 18Z" fill="#0076DE"/><mask id="faceSquare03Mask0" mask-type="alpha" maskUnits="userSpaceOnUse" x="0" y="0" width="130" height="120"><path fill-rule="evenodd" clip-rule="evenodd" d="M0 18C0 8.05888 8.05888 0 18 0H112C121.941 0 130 8.05888 130 18V45.1483C130 49.6831 129.229 54.1848 127.72 58.4611L110.239 107.991C107.699 115.187 100.896 120 93.2647 120H36.7353C29.1036 120 22.3014 115.187 19.7614 107.991L2.28038 58.4611C0.771117 54.1848 0 49.6831 0 45.1483L0 18Z" fill="white"/></mask><g mask="url(#faceSquare03Mask0)"><rect x="-2" y="-2" width="134" height="124" fill="#1E88E5"/> undefined </g></g><g transform="translate(52, 124)"><rect x="4" y="5" width="68" height="22" rx="5" fill="black" fill-opacity="0.2"/><rect x="8" y="9" width="60" height="14" rx="2" fill="black" fill-opacity="0.6"/><path fill-rule="evenodd" clip-rule="evenodd" d="M20 17L26 9H14L20 17Z" fill="#E1E6E8"/><path fill-rule="evenodd" clip-rule="evenodd" d="M32 17L38 9H26L32 17Z" fill="#E1E6E8"/><path fill-rule="evenodd" clip-rule="evenodd" d="M44 17L50 9H38L44 17Z" fill="#E1E6E8"/><path fill-rule="evenodd" clip-rule="evenodd" d="M56 17L62 9H50L56 17Z" fill="#E1E6E8"/></g><g transform="translate(38, 76)"><path fill-rule="evenodd" clip-rule="evenodd" d="M0 10C0 5.58172 3.58172 2 8 2H96C100.418 2 104 5.58172 104 10V28C104 32.4183 100.418 36 96 36H82.9808C79.7112 36.1672 77.4997 37.137 76.0046 38.3473C75.5176 38.7414 75.0239 39.1634 74.5216 39.5927C72.0465 41.7082 69.3652 44 66.2779 44H52H38.6676C35.5324 44 32.732 41.8707 30.0462 39.8285L30.0461 39.8285C29.096 39.1061 28.1602 38.3945 27.229 37.792C25.7725 36.8497 23.7704 36.1407 21.0192 36H8C3.58172 36 0 32.4183 0 28V10Z" fill="black" fill-opacity="0.8"/><mask id="eyesShade01Mask0" mask-type="alpha" maskUnits="userSpaceOnUse" x="0" y="2" width="104" height="42"><path fill-rule="evenodd" clip-rule="evenodd" d="M0 10C0 5.58172 3.58172 2 8 2H96C100.418 2 104 5.58172 104 10V28C104 32.4183 100.418 36 96 36H82.9808C79.7112 36.1672 77.4997 37.137 76.0046 38.3473C75.5176 38.7414 75.0239 39.1634 74.5216 39.5927C72.0465 41.7082 69.3652 44 66.2779 44H52H38.6676C35.5324 44 32.732 41.8707 30.0462 39.8285L30.0461 39.8285C29.096 39.1061 28.1602 38.3945 27.229 37.792C25.7725 36.8497 23.7704 36.1407 21.0192 36H8C3.58172 36 0 32.4183 0 28V10Z" fill="white"/></mask><g mask="url(#eyesShade01Mask0)"><path fill-rule="evenodd" clip-rule="evenodd" d="M12 19C12 16.2386 14.2386 14 17 14H87C89.7614 14 92 16.2386 92 19V21C92 23.7614 89.7614 26 87 26H74.9808C71.7112 26.1672 69.4997 27.137 68.0046 28.3473C67.5176 28.7414 67.0239 29.1634 66.5216 29.5927C64.5182 31.3051 62.3796 33.133 60 33.7674V34H58.2779H52H46.6676C43.5324 34 40.732 31.8707 38.0462 29.8285L38.0461 29.8285C37.096 29.1061 36.1602 28.3945 35.229 27.792C33.7725 26.8497 31.7704 26.1407 29.0192 26H17C14.2386 26 12 23.7614 12 21V19Z" fill="#FF3D3D"/><path fill-rule="evenodd" clip-rule="evenodd" d="M12 44L32 -2H28L8 44H12ZM50 -2H39L19 44H30L50 -2Z" fill="white" fill-opacity="0.2"/></g></g></g></svg>